<svg xmlns="http://www.w3.org/2000/svg" width="1200" height="800" viewBox="0 0 1200 800">
  <rect width="1200" height="800" rx="20" fill="#f8fafc" stroke="#d5dce3" stroke-width="4"/>
  <text x="100" y="120" font-family="Segoe UI, Arial, sans-serif" font-size="44" fill="#22384f">Editar Registro Operativo</text>
  <rect x="100" y="180" width="1000" height="520" rx="24" fill="#ffffff" stroke="#c7d2dc" stroke-width="2"/>
  <text x="140" y="250" font-family="Segoe UI, Arial, sans-serif" font-size="24" fill="#22384f">Formulario de edición</text>
  <g fill="#f0f4f8" stroke="#d5dde5" stroke-width="1.5">
    <rect x="140" y="300" width="420" height="54" rx="14"/>
    <rect x="140" y="370" width="420" height="54" rx="14"/>
    <rect x="140" y="440" width="420" height="54" rx="14"/>
    <rect x="140" y="510" width="420" height="54" rx="14"/>
    <rect x="140" y="580" width="420" height="54" rx="14"/>
    <rect x="600" y="300" width="420" height="54" rx="14"/>
    <rect x="600" y="370" width="420" height="54" rx="14"/>
    <rect x="600" y="440" width="420" height="54" rx="14"/>
    <rect x="600" y="510" width="420" height="54" rx="14"/>
    <rect x="600" y="580" width="420" height="54" rx="14"/>
  </g>
</svg>
