<svg xmlns="http://www.w3.org/2000/svg" width="1200" height="800" viewBox="0 0 1200 800">
  <rect width="1200" height="800" rx="20" fill="#f7f8fb" stroke="#d8dee4" stroke-width="4"/>
  <text x="100" y="120" font-family="Segoe UI, Arial, sans-serif" font-size="44" fill="#2a3e5c">Registro Operativo</text>
  <rect x="100" y="180" width="1000" height="520" rx="24" fill="#ffffff" stroke="#c8d2dd" stroke-width="2"/>
  <text x="140" y="250" font-family="Segoe UI, Arial, sans-serif" font-size="24" fill="#2a3e5c">Formulario de boleta</text>
  <g fill="#f4f7fb" stroke="#d6dde5" stroke-width="1.5">
    <rect x="140" y="290" width="420" height="54" rx="14"/>
    <rect x="140" y="360" width="420" height="54" rx="14"/>
    <rect x="140" y="430" width="420" height="54" rx="14"/>
    <rect x="140" y="500" width="420" height="54" rx="14"/>
    <rect x="140" y="570" width="420" height="54" rx="14"/>
    <rect x="600" y="290" width="420" height="54" rx="14"/>
    <rect x="600" y="360" width="420" height="54" rx="14"/>
    <rect x="600" y="430" width="420" height="54" rx="14"/>
    <rect x="600" y="500" width="420" height="54" rx="14"/>
    <rect x="600" y="570" width="420" height="54" rx="14"/>
  </g>
</svg>
