<svg xmlns="http://www.w3.org/2000/svg" width="1200" height="800" viewBox="0 0 1200 800">
  <rect width="1200" height="800" rx="20" fill="#eef4f8" stroke="#cdd7e1" stroke-width="4"/>
  <text x="100" y="120" font-family="Segoe UI, Arial, sans-serif" font-size="44" fill="#2a4760">Gestión de Usuarios</text>
  <rect x="100" y="180" width="460" height="520" rx="24" fill="#ffffff" stroke="#c8d3de" stroke-width="2"/>
  <rect x="600" y="180" width="460" height="520" rx="24" fill="#ffffff" stroke="#c8d3de" stroke-width="2"/>
  <text x="140" y="250" font-family="Segoe UI, Arial, sans-serif" font-size="24" fill="#2a4760">Crear/editar usuario</text>
  <text x="640" y="250" font-family="Segoe UI, Arial, sans-serif" font-size="24" fill="#2a4760">Lista de usuarios</text>
  <g fill="#f5f9fc" stroke="#d7e0e8" stroke-width="1.5">
    <rect x="140" y="300" width="380" height="54" rx="14"/>
    <rect x="140" y="370" width="380" height="54" rx="14"/>
    <rect x="140" y="440" width="380" height="54" rx="14"/>
    <rect x="140" y="510" width="380" height="54" rx="14"/>
    <rect x="140" y="580" width="380" height="54" rx="14"/>
    <rect x="640" y="300" width="380" height="54" rx="14"/>
    <rect x="640" y="370" width="380" height="54" rx="14"/>
    <rect x="640" y="440" width="380" height="54" rx="14"/>
    <rect x="640" y="510" width="380" height="54" rx="14"/>
    <rect x="640" y="580" width="380" height="54" rx="14"/>
  </g>
</svg>
